<svg xmlns="http://www.w3.org/2000/svg" width="414.765" height="108" viewBox="0 0 414.765 108">
  <g id="Group_343" data-name="Group 343" transform="translate(-108 -331.818)">
    <g id="Ellipse_3" data-name="Ellipse 3" transform="translate(108 333.389)" fill="#6f55ea" stroke="#6f55ea" stroke-width="1">
      <circle cx="52.694" cy="52.694" r="52.694" stroke="none"/>
      <circle cx="52.694" cy="52.694" r="52.194" fill="none"/>
    </g>
    <g id="Group_142" data-name="Group 142" transform="translate(220.765 331.818)">
      <text id="Redbee_365_Studio" data-name="Redbee 365
Studio" transform="translate(0)" fill="#6f55ea" font-size="50" font-family="Roboto-Bold, Roboto" font-weight="700"><tspan x="0" y="52">Redbee 365</tspan><tspan font-size="30" font-family="Roboto-Regular, Roboto" font-weight="400"><tspan x="0" y="97">Studio</tspan></tspan></text>
    </g>
    <g id="Group_8" data-name="Group 8" transform="translate(120.178 356.703)">
      <g id="Group_145" data-name="Group 145" transform="translate(0 0)">
        <g id="layer102">
          <path id="Path_2" data-name="Path 2" d="M5663.3,3910.973c-4.99-4.543-5.829-5.492-6.984-7.928-1.2-2.478-1.318-3.1-1.318-6.275.04-3.221.158-3.841,1.676-7.228.878-2.022,1.795-3.757,2.074-3.84s.439.743.439,2.683a21.39,21.39,0,0,0,.64,5.038c2,6.979,11.619,8.877,16.41,3.179,1.6-1.817,2.037-3.344,2.436-7.887L5679,3885l1.675,3.592c2.756,6.029,2.956,10.24.721,14.617-1.318,2.642-1.758,3.138-6.228,7.185-2.077,1.9-4.354,3.963-4.991,4.583l-1.2,1.156Zm9.1-3.263a11.4,11.4,0,0,0,7.463-8.754,6.7,6.7,0,0,0,.162-2.352c-.081-.124-.559.371-1.038,1.074-3.114,4.83-10.459,6.648-15.612,3.924a15.633,15.633,0,0,1-5.351-5.039c-.4-.7-.437-.454-.278,1.322C5658.434,3905.234,5665.738,3910.1,5672.408,3907.709Z" transform="translate(-5628.643 -3849.021)" fill="#fff"/>
          <path id="Path_3" data-name="Path 3" d="M5029.6,3050.708c-5.427-5.7-6.544-7.556-6.944-11.4a13.81,13.81,0,0,1,2.074-8.258l1.038-1.57-1.677-2.271a24.72,24.72,0,0,0-21.72-9.827c-4.07.372-4.07.413-3.032,3.841a27.019,27.019,0,0,0,6.429,10.4c1.956,2.023,3.113,2.725,6.746,4.17,1.556.661.639.909-1.557.413-7.865-1.734-15.053-10.2-16.092-18.953-.2-1.652-.117-1.817.84-2.23a41.065,41.065,0,0,1,4.274-1.031c9.94-1.857,21.4,3.1,27.585,12.015l.839,1.2,1.957-.784a12.571,12.571,0,0,1,9.022.124l1.876.868,1.077-1.611a34.211,34.211,0,0,1,8.625-8.01,39.968,39.968,0,0,1,6.108-2.767,19.143,19.143,0,0,1,7.785-1.321,29.051,29.051,0,0,1,7.1.742l2.878.744v1.569c0,2.6-1.521,6.813-3.634,10.076-3.554,5.491-7.467,8.3-13.417,9.538-1.955.412-1.635-.5.4-1.032,2.6-.7,5.627-3.1,8.024-6.358a23.932,23.932,0,0,0,4.39-8.466c.761-2.683.721-2.725-2.833-3.138-8.3-.908-18,3.552-22.6,10.447l-1.076,1.61,1.4,2.767a9.946,9.946,0,0,1,1.4,5.946c0,4.5-.839,5.988-6.787,12.428-2.716,2.972-5.07,5.409-5.189,5.409S5032.393,3053.6,5029.6,3050.708Zm9.383-3.469c4.312-4.707,5.469-7.1,4.912-10.158-.078-.437.045-1.944-2.211-3.968a34.768,34.768,0,0,0-6.812-4.125s-7.844,4.46-8.3,5.12a11.32,11.32,0,0,0-.84,3.716c0,3.634.6,4.79,4.869,9.374,2.236,2.312,4.152,4.253,4.274,4.253A52.652,52.652,0,0,0,5038.979,3047.239Z" transform="translate(-4994.773 -3013.613)" fill="#fff"/>
          <path id="Path_4" data-name="Path 4" d="M6083.321,3056.276c.638-3.387,2.633-6.277,4.391-6.277a1.7,1.7,0,0,1,1.357,2.89,2.289,2.289,0,0,1-1.277.826,9.188,9.188,0,0,0-2.675,2.188l-2.116,2.147Z" transform="translate(-6039.553 -3048.497)" fill="#fff"/>
          <path id="Path_5" data-name="Path 5" d="M5769.422,3046.648a9.891,9.891,0,0,0-3.035-2.478,4.969,4.969,0,0,1-2-1.569,2.347,2.347,0,0,1,1.8-2.6c1.557,0,3.913,3.551,4.511,6.938a3.162,3.162,0,0,1,.082,1.32A17.193,17.193,0,0,1,5769.422,3046.648Z" transform="translate(-5733.599 -3038.91)" fill="#fff"/>
        </g>
        <g id="layer102-2" data-name="layer102" transform="translate(31.761 20.601)">
          <path id="Path_7" data-name="Path 7" d="M6083.321,3060.049c.638-5.42,2.633-10.049,4.391-10.049,1.636,0,2.436,2.645,1.357,4.629-.4.727-.958,1.321-1.277,1.321s-1.518,1.586-2.675,3.5l-2.116,3.437Z" transform="translate(-6073.037 -3049.587)" fill="#fff"/>
          <path id="Path_6" data-name="Path 6" d="M5769.422,3050.543a12.683,12.683,0,0,0-3.035-3.929,6.324,6.324,0,0,1-2-2.488c-.359-1.44.8-4.126,1.8-4.126,1.557,0,3.913,5.632,4.511,11a7.911,7.911,0,0,1,.082,2.1A28.073,28.073,0,0,1,5769.422,3050.543Z" transform="translate(-5764.324 -3040)" fill="#fff"/>
        </g>
      </g>
    </g>
  </g>
</svg>
