<svg xmlns="http://www.w3.org/2000/svg" viewBox="0 0 64 64" width="64" height="64">
  <path fill="#21759B" d="M4.548 31.999c0 10.9 6.3 20.3 15.5 24.706L6.925 20.827C5.402 24.2 4.5 28 4.5 31.999z M50.531 30.614c0-3.394-1.219-5.742-2.264-7.57-1.391-2.263-2.695-4.177-2.695-6.439 0-2.523 1.912-4.872 4.609-4.872.121 0 .2 0 .4.022C45.653 7.3 39.1 4.5 32 4.548c-9.591 0-18.027 4.921-22.936 12.4.645 0 1.3 0 1.8.033 2.871 0 7.316-.349 7.316-.349 1.479-.086 1.7 2.1.2 2.3 0 0-1.487.174-3.142.261l9.997 29.735 6.008-18.017-4.276-11.718c-1.479-.087-2.879-.261-2.879-.261-1.48-.087-1.306-2.349.174-2.262 0 0 4.5.3 7.2.349 2.87 0 7.317-.349 7.317-.349 1.479-.086 1.7 2.1.2 2.262 0 0-1.489.174-3.142.261l9.92 29.508 2.739-9.148C49.628 35.7 50.5 33 50.5 30.614z M32.481 34.4l-8.237 23.934c2.46.7 5.1 1.1 7.8 1.1 3.197 0 6.262-.552 9.116-1.556-.072-.118-.141-.243-.196-.379L32.481 34.4z M56.088 18.8c.119.9.2 1.8.2 2.823 0 2.785-.521 5.916-2.088 9.832l-8.385 24.242c8.161-4.758 13.65-13.6 13.65-23.728C59.451 27.2 58.2 22.7 56.1 18.83z M32 0C14.355 0 0 14.355 0 32s14.355 32 32 32 32-14.355 32-32S49.645 0 32 0zm0 62.533C15.165 62.533 1.467 48.835 1.467 31.999 1.467 15.2 15.2 1.5 32 1.5s30.534 13.7 30.534 30.499C62.534 48.8 48.8 62.533 32 62.533z"/>
</svg>
